<mxfile host="app.diagrams.net" modified="2022-04-11T02:57:46.521Z" agent="5.0 (Windows NT 10.0; Win64; x64) AppleWebKit/537.36 (KHTML, like Gecko) Chrome/100.0.4896.75 Safari/537.36" etag="L6Pi3AqSIFnjjnZUayxu" version="17.4.2" type="github">
  <diagram id="JEVat6KXCHiBd-eGgY2s" name="Page-1">
    <mxGraphModel dx="3435" dy="1444" grid="1" gridSize="10" guides="1" tooltips="1" connect="1" arrows="1" fold="1" page="1" pageScale="1" pageWidth="850" pageHeight="1100" math="0" shadow="0">
      <root>
        <mxCell id="0" />
        <mxCell id="1" parent="0" />
        <mxCell id="JJPIzS1Jl6dEuaurSNnn-10" value="" style="group" vertex="1" connectable="0" parent="1">
          <mxGeometry x="-530" y="70" width="1140" height="990" as="geometry" />
        </mxCell>
        <mxCell id="JJPIzS1Jl6dEuaurSNnn-1" value="" style="shape=folder;fontStyle=1;spacingTop=10;tabWidth=200;tabHeight=30;tabPosition=left;html=1;" vertex="1" parent="JJPIzS1Jl6dEuaurSNnn-10">
          <mxGeometry width="1140" height="990" as="geometry" />
        </mxCell>
        <mxCell id="JJPIzS1Jl6dEuaurSNnn-3" value="&lt;font style=&quot;font-size: 18px&quot;&gt;seng300.software&lt;/font&gt;" style="text;html=1;align=center;verticalAlign=middle;resizable=0;points=[];autosize=1;strokeColor=none;fillColor=none;" vertex="1" parent="JJPIzS1Jl6dEuaurSNnn-10">
          <mxGeometry y="12.6978799249531" width="160" height="20" as="geometry" />
        </mxCell>
        <mxCell id="JJPIzS1Jl6dEuaurSNnn-44" value="SelfCheckoutSytemLogic" style="swimlane;fontStyle=1;align=center;verticalAlign=top;childLayout=stackLayout;horizontal=1;startSize=26;horizontalStack=0;resizeParent=1;resizeParentMax=0;resizeLast=0;collapsible=1;marginBottom=0;fontSize=18;" vertex="1" parent="JJPIzS1Jl6dEuaurSNnn-10">
          <mxGeometry x="310" y="500" width="480" height="328" as="geometry" />
        </mxCell>
        <mxCell id="JJPIzS1Jl6dEuaurSNnn-45" value="+ productDatabase: ProductDatabaseLogic&#xa;+ checkout: Checkout&#xa;- baggingAreaItems: ArrayList&lt;BarcodedItem&gt;&#xa;- baggingAreaPluItems: ArrayList&lt;PLUCodedItme&gt;" style="text;strokeColor=none;fillColor=none;align=left;verticalAlign=top;spacingLeft=4;spacingRight=4;overflow=hidden;rotatable=0;points=[[0,0.5],[1,0.5]];portConstraint=eastwest;fontSize=19;" vertex="1" parent="JJPIzS1Jl6dEuaurSNnn-44">
          <mxGeometry y="26" width="480" height="114" as="geometry" />
        </mxCell>
        <mxCell id="JJPIzS1Jl6dEuaurSNnn-46" value="" style="line;strokeWidth=1;fillColor=none;align=left;verticalAlign=middle;spacingTop=-1;spacingLeft=3;spacingRight=3;rotatable=0;labelPosition=right;points=[];portConstraint=eastwest;fontSize=18;" vertex="1" parent="JJPIzS1Jl6dEuaurSNnn-44">
          <mxGeometry y="140" width="480" height="8" as="geometry" />
        </mxCell>
        <mxCell id="JJPIzS1Jl6dEuaurSNnn-47" value="+ useOwnBags():void&#xa;+ isBlocked(): boolean&#xa;+ block(): void&#xa;+ unblock():void&#xa;" style="text;strokeColor=none;fillColor=none;align=left;verticalAlign=top;spacingLeft=4;spacingRight=4;overflow=hidden;rotatable=0;points=[[0,0.5],[1,0.5]];portConstraint=eastwest;fontSize=21;" vertex="1" parent="JJPIzS1Jl6dEuaurSNnn-44">
          <mxGeometry y="148" width="480" height="180" as="geometry" />
        </mxCell>
        <mxCell id="JJPIzS1Jl6dEuaurSNnn-33" value="AttendantLogic" style="swimlane;fontStyle=1;align=center;verticalAlign=top;childLayout=stackLayout;horizontal=1;startSize=26;horizontalStack=0;resizeParent=1;resizeParentMax=0;resizeLast=0;collapsible=1;marginBottom=0;fontSize=18;" vertex="1" parent="JJPIzS1Jl6dEuaurSNnn-10">
          <mxGeometry x="105" y="100" width="930" height="280" as="geometry" />
        </mxCell>
        <mxCell id="JJPIzS1Jl6dEuaurSNnn-35" value="" style="line;strokeWidth=1;fillColor=none;align=left;verticalAlign=middle;spacingTop=-1;spacingLeft=3;spacingRight=3;rotatable=0;labelPosition=right;points=[];portConstraint=eastwest;fontSize=18;" vertex="1" parent="JJPIzS1Jl6dEuaurSNnn-33">
          <mxGeometry y="26" width="930" height="8" as="geometry" />
        </mxCell>
        <mxCell id="JJPIzS1Jl6dEuaurSNnn-36" value="+ emptyCoinStorageUnit(SelfCheckoutStation):void&#xa;+ emptyBanknoteStorageUnit(SelfCheckoutStation):void&#xa;+ refillsCoinDispenser(SelfCheckoutStation):void&#xa;+ refillsBanknoteDispenser(SelfCheckoutStatoin):void&#xa;+ attendantBlock(SelfCheckoutStation):void&#xa;+ attendantAddInk(SelfCheckoutStation):void&#xa;+ attendantAddPaper(SelfCheckoutStation):void&#xa;+ AttendantRemovePurchasedItem(BarcodedProduct, SelfCheckoutSystemLogic):void&#xa;+ AttendantRemovePurchasedItem(PLUCodedWeightProduct, SelfCheckoutSystemLogic):void&#xa;" style="text;strokeColor=none;fillColor=none;align=left;verticalAlign=top;spacingLeft=4;spacingRight=4;overflow=hidden;rotatable=0;points=[[0,0.5],[1,0.5]];portConstraint=eastwest;fontSize=20;" vertex="1" parent="JJPIzS1Jl6dEuaurSNnn-33">
          <mxGeometry y="34" width="930" height="246" as="geometry" />
        </mxCell>
        <mxCell id="JJPIzS1Jl6dEuaurSNnn-16" value="" style="group" vertex="1" connectable="0" parent="1">
          <mxGeometry x="860" y="930" width="360" height="300" as="geometry" />
        </mxCell>
        <mxCell id="JJPIzS1Jl6dEuaurSNnn-30" value="" style="group" vertex="1" connectable="0" parent="JJPIzS1Jl6dEuaurSNnn-16">
          <mxGeometry width="360" height="300" as="geometry" />
        </mxCell>
        <mxCell id="JJPIzS1Jl6dEuaurSNnn-17" value="" style="shape=folder;fontStyle=1;spacingTop=10;tabWidth=350;tabHeight=30;tabPosition=left;html=1;" vertex="1" parent="JJPIzS1Jl6dEuaurSNnn-30">
          <mxGeometry width="360" height="300" as="geometry" />
        </mxCell>
        <mxCell id="JJPIzS1Jl6dEuaurSNnn-18" value="&lt;span style=&quot;font-size: 18px&quot;&gt;org.lsmr.selfcheckout.devices.observers&lt;/span&gt;" style="text;html=1;align=center;verticalAlign=middle;resizable=0;points=[];autosize=1;strokeColor=none;fillColor=none;" vertex="1" parent="JJPIzS1Jl6dEuaurSNnn-30">
          <mxGeometry x="6.545454545454547" y="7.317073170731707" width="330" height="20" as="geometry" />
        </mxCell>
        <mxCell id="JJPIzS1Jl6dEuaurSNnn-20" value="«interface»&lt;br&gt;&lt;b&gt;TouchScreenObserver&lt;/b&gt;" style="html=1;fontSize=18;" vertex="1" parent="JJPIzS1Jl6dEuaurSNnn-30">
          <mxGeometry x="19.45945945945946" y="51.724137931034484" width="194.5945945945946" height="72.41379310344828" as="geometry" />
        </mxCell>
        <mxCell id="JJPIzS1Jl6dEuaurSNnn-29" value="«interface»&lt;br&gt;&lt;b&gt;KeyboardObserver&lt;/b&gt;" style="html=1;fontSize=18;" vertex="1" parent="JJPIzS1Jl6dEuaurSNnn-30">
          <mxGeometry x="19.45945945945946" y="165.51724137931035" width="194.5945945945946" height="72.41379310344828" as="geometry" />
        </mxCell>
        <mxCell id="JJPIzS1Jl6dEuaurSNnn-31" value="ProductDatabases" style="html=1;fontSize=18;" vertex="1" parent="1">
          <mxGeometry x="-770" y="370" width="150" height="60" as="geometry" />
        </mxCell>
        <mxCell id="JJPIzS1Jl6dEuaurSNnn-12" value="" style="shape=folder;fontStyle=1;spacingTop=10;tabWidth=250;tabHeight=30;tabPosition=left;html=1;" vertex="1" parent="1">
          <mxGeometry x="-720" y="1200" width="1490" height="260" as="geometry" />
        </mxCell>
        <mxCell id="JJPIzS1Jl6dEuaurSNnn-13" value="&lt;span style=&quot;font-size: 18px&quot;&gt;org.lsmr.selfcheckout.devices&lt;/span&gt;" style="text;html=1;align=center;verticalAlign=middle;resizable=0;points=[];autosize=1;strokeColor=none;fillColor=none;" vertex="1" parent="1">
          <mxGeometry x="-720" y="1210" width="250" height="20" as="geometry" />
        </mxCell>
        <mxCell id="JJPIzS1Jl6dEuaurSNnn-32" value="ReceiptPrinter" style="html=1;fontSize=18;" vertex="1" parent="1">
          <mxGeometry x="130" y="1270" width="150" height="60" as="geometry" />
        </mxCell>
        <mxCell id="JJPIzS1Jl6dEuaurSNnn-37" value="BanknoteStorageUnit" style="html=1;fontSize=18;" vertex="1" parent="1">
          <mxGeometry x="325" y="1270" width="200" height="60" as="geometry" />
        </mxCell>
        <mxCell id="JJPIzS1Jl6dEuaurSNnn-38" value="BanknoteDispenser" style="html=1;fontSize=18;" vertex="1" parent="1">
          <mxGeometry x="-300" y="1270" width="170" height="60" as="geometry" />
        </mxCell>
        <mxCell id="JJPIzS1Jl6dEuaurSNnn-40" value="SupervisionStation" style="swimlane;fontStyle=1;align=center;verticalAlign=top;childLayout=stackLayout;horizontal=1;startSize=26;horizontalStack=0;resizeParent=1;resizeParentMax=0;resizeLast=0;collapsible=1;marginBottom=0;fontSize=18;" vertex="1" parent="1">
          <mxGeometry x="-590" y="1260" width="270" height="86" as="geometry" />
        </mxCell>
        <mxCell id="JJPIzS1Jl6dEuaurSNnn-41" value="+ field: type" style="text;strokeColor=none;fillColor=none;align=left;verticalAlign=top;spacingLeft=4;spacingRight=4;overflow=hidden;rotatable=0;points=[[0,0.5],[1,0.5]];portConstraint=eastwest;fontSize=18;" vertex="1" parent="JJPIzS1Jl6dEuaurSNnn-40">
          <mxGeometry y="26" width="270" height="26" as="geometry" />
        </mxCell>
        <mxCell id="JJPIzS1Jl6dEuaurSNnn-42" value="" style="line;strokeWidth=1;fillColor=none;align=left;verticalAlign=middle;spacingTop=-1;spacingLeft=3;spacingRight=3;rotatable=0;labelPosition=right;points=[];portConstraint=eastwest;fontSize=18;" vertex="1" parent="JJPIzS1Jl6dEuaurSNnn-40">
          <mxGeometry y="52" width="270" height="8" as="geometry" />
        </mxCell>
        <mxCell id="JJPIzS1Jl6dEuaurSNnn-43" value="+ method(type): type" style="text;strokeColor=none;fillColor=none;align=left;verticalAlign=top;spacingLeft=4;spacingRight=4;overflow=hidden;rotatable=0;points=[[0,0.5],[1,0.5]];portConstraint=eastwest;fontSize=18;" vertex="1" parent="JJPIzS1Jl6dEuaurSNnn-40">
          <mxGeometry y="60" width="270" height="26" as="geometry" />
        </mxCell>
        <mxCell id="JJPIzS1Jl6dEuaurSNnn-48" value="CoinStorageUnit" style="html=1;fontSize=18;" vertex="1" parent="1">
          <mxGeometry x="590" y="1270" width="150" height="60" as="geometry" />
        </mxCell>
        <mxCell id="JJPIzS1Jl6dEuaurSNnn-49" value="CoinDispenser" style="html=1;fontSize=18;" vertex="1" parent="1">
          <mxGeometry x="-70" y="1270" width="150" height="60" as="geometry" />
        </mxCell>
        <mxCell id="JJPIzS1Jl6dEuaurSNnn-52" value="BaggingAreaObserver" style="html=1;fontSize=18;" vertex="1" parent="1">
          <mxGeometry x="1130" y="190" width="220" height="70" as="geometry" />
        </mxCell>
      </root>
    </mxGraphModel>
  </diagram>
</mxfile>
